<svg viewBox="0 0 160 100" xmlns="http://www.w3.org/2000/svg">
<rect fill="#1A1A80" height="30" width="30" x="0" y="0"/>
<line style="stroke:black;stroke-width:0.8" x1="0" x2="30" y1="30" y2="30"/>
<line style="stroke:black;stroke-width:0.8" x1="0" x2="30" y1="0" y2="0"/>
<line style="stroke:black;stroke-width:0.8" x1="0" x2="0" y1="0" y2="30"/>
<line style="stroke:black;stroke-width:0.8" x1="30" x2="30" y1="0" y2="30"/>
<rect fill="#E6B21A" height="20" width="30" x="0" y="30"/>
<line style="stroke:black;stroke-width:0.8" x1="0" x2="30" y1="50" y2="50"/>
<line style="stroke:black;stroke-width:0.8" x1="0" x2="30" y1="30" y2="30"/>
<line style="stroke:black;stroke-width:0.8" x1="0" x2="0" y1="30" y2="50"/>
<line style="stroke:black;stroke-width:0.8" x1="30" x2="30" y1="30" y2="50"/>
<rect fill="#E6E6E6" height="50" width="40" x="30" y="0"/>
<line style="stroke:black;stroke-width:0.8" x1="30" x2="70" y1="50" y2="50"/>
<line style="stroke:black;stroke-width:0.8" x1="30" x2="70" y1="0" y2="0"/>
<line style="stroke:black;stroke-width:0.8" x1="30" x2="30" y1="0" y2="50"/>
<line style="stroke:black;stroke-width:0.8" x1="70" x2="70" y1="0" y2="50"/>
<rect fill="#1A1A80" height="15" width="35" x="70" y="0"/>
<line style="stroke:black;stroke-width:0.8" x1="70" x2="105" y1="15" y2="15"/>
<line style="stroke:black;stroke-width:0.8" x1="70" x2="105" y1="0" y2="0"/>
<line style="stroke:black;stroke-width:0.8" x1="70" x2="70" y1="0" y2="15"/>
<line style="stroke:black;stroke-width:0.8" x1="105" x2="105" y1="0" y2="15"/>
<rect fill="#CC1A1A" height="35" width="35" x="70" y="15"/>
<line style="stroke:black;stroke-width:0.8" x1="70" x2="105" y1="50" y2="50"/>
<line style="stroke:black;stroke-width:0.8" x1="70" x2="105" y1="15" y2="15"/>
<line style="stroke:black;stroke-width:0.8" x1="70" x2="70" y1="15" y2="50"/>
<line style="stroke:black;stroke-width:0.8" x1="105" x2="105" y1="15" y2="50"/>
<rect fill="#CC1A1A" height="50" width="25" x="105" y="0"/>
<line style="stroke:black;stroke-width:0.8" x1="105" x2="130" y1="50" y2="50"/>
<line style="stroke:black;stroke-width:0.8" x1="105" x2="130" y1="0" y2="0"/>
<line style="stroke:black;stroke-width:0.8" x1="105" x2="105" y1="0" y2="50"/>
<line style="stroke:black;stroke-width:0.8" x1="130" x2="130" y1="0" y2="50"/>
<rect fill="#E6B21A" height="50" width="30" x="130" y="0"/>
<line style="stroke:black;stroke-width:0.8" x1="130" x2="160" y1="50" y2="50"/>
<line style="stroke:black;stroke-width:0.8" x1="130" x2="160" y1="0" y2="0"/>
<line style="stroke:black;stroke-width:0.8" x1="130" x2="130" y1="0" y2="50"/>
<line style="stroke:black;stroke-width:0.8" x1="160" x2="160" y1="0" y2="50"/>
<rect fill="#E6E6E6" height="15" width="45" x="0" y="50"/>
<line style="stroke:black;stroke-width:0.8" x1="0" x2="45" y1="65" y2="65"/>
<line style="stroke:black;stroke-width:0.8" x1="0" x2="45" y1="50" y2="50"/>
<line style="stroke:black;stroke-width:0.8" x1="0" x2="0" y1="50" y2="65"/>
<line style="stroke:black;stroke-width:0.8" x1="45" x2="45" y1="50" y2="65"/>
<rect fill="#E6E6E6" height="15" width="45" x="45" y="50"/>
<line style="stroke:black;stroke-width:0.8" x1="45" x2="90" y1="65" y2="65"/>
<line style="stroke:black;stroke-width:0.8" x1="45" x2="90" y1="50" y2="50"/>
<line style="stroke:black;stroke-width:0.8" x1="45" x2="45" y1="50" y2="65"/>
<line style="stroke:black;stroke-width:0.8" x1="90" x2="90" y1="50" y2="65"/>
<rect fill="#E6E6E6" height="15" width="30" x="90" y="50"/>
<line style="stroke:black;stroke-width:0.8" x1="90" x2="120" y1="65" y2="65"/>
<line style="stroke:black;stroke-width:0.8" x1="90" x2="120" y1="50" y2="50"/>
<line style="stroke:black;stroke-width:0.8" x1="90" x2="90" y1="50" y2="65"/>
<line style="stroke:black;stroke-width:0.8" x1="120" x2="120" y1="50" y2="65"/>
<rect fill="#1A1A80" height="15" width="40" x="120" y="50"/>
<line style="stroke:black;stroke-width:0.8" x1="120" x2="160" y1="65" y2="65"/>
<line style="stroke:black;stroke-width:0.8" x1="120" x2="160" y1="50" y2="50"/>
<line style="stroke:black;stroke-width:0.8" x1="120" x2="120" y1="50" y2="65"/>
<line style="stroke:black;stroke-width:0.8" x1="160" x2="160" y1="50" y2="65"/>
<rect fill="#1A1A80" height="35" width="45" x="0" y="65"/>
<line style="stroke:black;stroke-width:0.8" x1="0" x2="45" y1="100" y2="100"/>
<line style="stroke:black;stroke-width:0.8" x1="0" x2="45" y1="65" y2="65"/>
<line style="stroke:black;stroke-width:0.8" x1="0" x2="0" y1="65" y2="100"/>
<line style="stroke:black;stroke-width:0.8" x1="45" x2="45" y1="65" y2="100"/>
<rect fill="#1A1A80" height="35" width="35" x="45" y="65"/>
<line style="stroke:black;stroke-width:0.8" x1="45" x2="80" y1="100" y2="100"/>
<line style="stroke:black;stroke-width:0.8" x1="45" x2="80" y1="65" y2="65"/>
<line style="stroke:black;stroke-width:0.8" x1="45" x2="45" y1="65" y2="100"/>
<line style="stroke:black;stroke-width:0.8" x1="80" x2="80" y1="65" y2="100"/>
<rect fill="#1A1A80" height="35" width="35" x="80" y="65"/>
<line style="stroke:black;stroke-width:0.8" x1="80" x2="115" y1="100" y2="100"/>
<line style="stroke:black;stroke-width:0.8" x1="80" x2="115" y1="65" y2="65"/>
<line style="stroke:black;stroke-width:0.8" x1="80" x2="80" y1="65" y2="100"/>
<line style="stroke:black;stroke-width:0.8" x1="115" x2="115" y1="65" y2="100"/>
<rect fill="#1A1A80" height="35" width="45" x="115" y="65"/>
<line style="stroke:black;stroke-width:0.8" x1="115" x2="160" y1="100" y2="100"/>
<line style="stroke:black;stroke-width:0.8" x1="115" x2="160" y1="65" y2="65"/>
<line style="stroke:black;stroke-width:0.8" x1="115" x2="115" y1="65" y2="100"/>
<line style="stroke:black;stroke-width:0.8" x1="160" x2="160" y1="65" y2="100"/>
</svg>